<?xml version="1.0" encoding="UTF-8"?>
<svg version="1.1" xmlns="http://www.w3.org/2000/svg" width="200" height="200">
<path d="M0 0 C5.61 0 11.22 0 17 0 C17.56589844 2.44277344 18.13179687 4.88554688 18.71484375 7.40234375 C19.26337225 9.75891149 19.81314317 12.1151861 20.36303711 14.47143555 C20.74552474 16.11338523 21.12671321 17.75563809 21.5065918 19.39819336 C22.05178735 21.75454703 22.60159472 24.10978278 23.15234375 26.46484375 C23.3221727 27.20339096 23.49200165 27.94193817 23.66697693 28.7028656 C24.24875931 32.13753282 24.24875931 32.13753282 26 35 C26.23710693 33.97527588 26.47421387 32.95055176 26.71850586 31.89477539 C27.59636773 28.10518483 28.47897136 24.31671209 29.36303711 20.52856445 C29.74552474 18.88661477 30.12671321 17.24436191 30.5065918 15.60180664 C31.05178735 13.24545297 31.60159472 10.89021722 32.15234375 8.53515625 C32.3221727 7.79660904 32.49200165 7.05806183 32.66697693 6.2971344 C33.88612829 1.11387171 33.88612829 1.11387171 35 0 C40.61 0 46.22 0 52 0 C52 17.49 52 34.98 52 53 C48.04 53 44.08 53 40 53 C39.67 42.77 39.34 32.54 39 22 C35.535 37.345 35.535 37.345 32 53 C28.04 53 24.08 53 20 53 C17.53308481 46.06225317 15.8170295 39.13963758 14.3125 31.9375 C13.549375 28.328125 12.78625 24.71875 12 21 C11.67 31.56 11.34 42.12 11 53 C7.37 53 3.74 53 0 53 C0 35.51 0 18.02 0 0 Z " fill="#1F70C1" transform="translate(125,108)"/>
<path d="M0 0 C7.9509375 -0.12375 7.9509375 -0.12375 16.0625 -0.25 C17.721604 -0.28641602 19.38070801 -0.32283203 21.09008789 -0.36035156 C22.42593091 -0.37204938 23.76178834 -0.38223861 25.09765625 -0.390625 C26.11273254 -0.4213208 26.11273254 -0.4213208 27.14831543 -0.45263672 C32.61530013 -0.45658614 35.58728839 1.01937849 40 4 C43.25234691 7.67200458 43.45020488 11.12115083 43.30078125 15.84765625 C42.89395862 18.75881556 41.76019584 20.6765415 40 23 C39.67 23.66 39.34 24.32 39 25 C39.804375 25.763125 40.60875 26.52625 41.4375 27.3125 C44.39533743 30.41462218 44.89954645 31.97537379 45.3125 36.1875 C44.82475303 42.13801305 42.76047794 46.32539903 38.4375 50.4375 C34.15582585 53.18216292 30.40279541 53.13371931 25.48828125 53.09765625 C24.84258179 53.09664917 24.19688232 53.09564209 23.53161621 53.09460449 C21.12522601 53.08938211 18.71886118 53.07542083 16.3125 53.0625 C10.929375 53.041875 5.54625 53.02125 0 53 C0 35.51 0 18.02 0 0 Z M12 10 C12 13.3 12 16.6 12 20 C14.79192205 20.05380578 17.5828141 20.09357669 20.375 20.125 C21.1690625 20.14175781 21.963125 20.15851563 22.78125 20.17578125 C24.85492015 20.19335473 26.92883241 20.10335168 29 20 C31.31563087 18.11499729 31.31563087 18.11499729 31.25 15 C31.31563087 11.88500271 31.31563087 11.88500271 29 10 C26.0906442 9.85482256 23.280054 9.81369204 20.375 9.875 C19.57320312 9.88402344 18.77140625 9.89304687 17.9453125 9.90234375 C15.96341477 9.92593777 13.98167019 9.96180935 12 10 Z M12 30 C12 34.29 12 38.58 12 43 C14.77141717 43.08089542 17.54047819 43.14044062 20.3125 43.1875 C21.49102539 43.22520508 21.49102539 43.22520508 22.69335938 43.26367188 C23.45068359 43.27333984 24.20800781 43.28300781 24.98828125 43.29296875 C25.68477783 43.3086792 26.38127441 43.32438965 27.09887695 43.34057617 C29.62033015 42.88887112 30.47604129 42.02990484 32 40 C32.58333333 36.5 32.58333333 36.5 32 33 C29.47248944 30.14593769 27.95639964 29.99671684 24.109375 29.70703125 C22.65595991 29.72685055 21.20268833 29.76245155 19.75 29.8125 C18.63238281 29.83280273 18.63238281 29.83280273 17.4921875 29.85351562 C15.66114584 29.88872796 13.83047831 29.94253149 12 30 Z " fill="#1F70C1" transform="translate(23,108)"/>
<path d="M0 0 C4.805625 -0.0825 9.61125 -0.165 14.5625 -0.25 C16.06498291 -0.28641602 17.56746582 -0.32283203 19.11547852 -0.36035156 C31.47718297 -0.46320678 31.47718297 -0.46320678 37 4 C41.21910922 9.19274981 41.56801994 13.57761769 41.3203125 20.19140625 C40.74799103 25.20968839 39.16363904 27.92363388 35.5 31.3125 C32.16945525 33.5606177 29.69574168 34.12550171 25.76953125 34.09765625 C25.04612549 34.09515869 24.32271973 34.09266113 23.57739258 34.09008789 C22.20877075 34.07643188 22.20877075 34.07643188 20.8125 34.0625 C17.904375 34.041875 14.99625 34.02125 12 34 C12 40.27 12 46.54 12 53 C8.04 53 4.08 53 0 53 C0 35.51 0 18.02 0 0 Z M12 10 C12 14.62 12 19.24 12 24 C15.3721875 24.12375 15.3721875 24.12375 18.8125 24.25 C20.07707031 24.29640625 21.34164062 24.3428125 22.64453125 24.390625 C26.03124806 24.33645458 26.03124806 24.33645458 27.92578125 22.171875 C29.38113122 19.22942197 29.40555562 17.24444498 29 14 C28.02246442 11.70947427 28.02246442 11.70947427 26 10 C22.57235945 9.51482597 22.57235945 9.51482597 18.8125 9.75 C16.564375 9.8325 14.31625 9.915 12 10 Z " fill="#1F70C1" transform="translate(76,108)"/>
<path d="M0 0 C17.16 0 34.32 0 52 0 C52 1.65 52 3.3 52 5 C34.84 5 17.68 5 0 5 C0 3.35 0 1.7 0 0 Z " fill="#1F70C1" transform="translate(116,63)"/>
<path d="M0 0 C4.99872122 -0.09935536 9.99685955 -0.17169622 14.99633789 -0.21972656 C16.69468202 -0.23976221 18.39295785 -0.26699885 20.09106445 -0.30175781 C22.5413504 -0.35063415 24.9907194 -0.37304872 27.44140625 -0.390625 C28.56839684 -0.42159271 28.56839684 -0.42159271 29.71815491 -0.45318604 C35.24296269 -0.45550363 38.40336283 0.93734146 43 4 C43 4.66 43 5.32 43 6 C28.81 6 14.62 6 0 6 C0 4.02 0 2.04 0 0 Z " fill="#1F70C1" transform="translate(57,38)"/>
<path d="M0 0 C14.19 0 28.38 0 43 0 C42.67 0.99 42.34 1.98 42 3 C36.43260744 5.61862018 31.87322453 6.42725806 25.78125 6.29296875 C25.03790405 6.28872391 24.29455811 6.28447906 23.52868652 6.28010559 C21.18540142 6.26349081 18.84301923 6.22587454 16.5 6.1875 C14.89845004 6.17243078 13.29688642 6.15874632 11.6953125 6.14648438 C7.79653417 6.11364426 3.89841944 6.06198563 0 6 C0 4.02 0 2.04 0 0 Z " fill="#1F70C1" transform="translate(57,95)"/>
<path d="M0 0 C16.17 0 32.34 0 49 0 C48.34 1.65 47.68 3.3 47 5 C31.49 5 15.98 5 0 5 C0 3.35 0 1.7 0 0 Z " fill="#1F70C1" transform="translate(57,87)"/>
<path d="M0 0 C15.51 0 31.02 0 47 0 C47.495 2.475 47.495 2.475 48 5 C32.16 5 16.32 5 0 5 C0 3.35 0 1.7 0 0 Z " fill="#1F70C1" transform="translate(57,47)"/>
<path d="M0 0 C10.23 0 20.46 0 31 0 C31 1.98 31 3.96 31 6 C20.77 6 10.54 6 0 6 C0 4.02 0 2.04 0 0 Z " fill="#1F70C1" transform="translate(23,95)"/>
<path d="M0 0 C10.23 0 20.46 0 31 0 C31 1.98 31 3.96 31 6 C20.77 6 10.54 6 0 6 C0 4.02 0 2.04 0 0 Z " fill="#1F70C1" transform="translate(23,38)"/>
<path d="M0 0 C4.78715623 -0.07415168 9.57397827 -0.12860204 14.36157227 -0.16479492 C15.99021223 -0.17988243 17.61881156 -0.20035506 19.24731445 -0.22631836 C21.58815535 -0.26270449 23.92845919 -0.2797262 26.26953125 -0.29296875 C26.99775589 -0.30845261 27.72598053 -0.32393646 28.47627258 -0.33988953 C33.55384196 -0.34158031 33.55384196 -0.34158031 35.9831543 1.51831055 C36.31871338 2.00726807 36.65427246 2.49622559 37 3 C36.67 3.99 36.34 4.98 36 6 C24.12 5.67 12.24 5.34 0 5 C0 3.35 0 1.7 0 0 Z " fill="#1F70C1" transform="translate(66,71)"/>
<path d="M0 0 C0.495 1.485 0.495 1.485 1 3 C-0.0168457 4.48168945 -0.0168457 4.48168945 -2 6 C-4.65834628 6.26154123 -7.07685104 6.34939122 -9.73046875 6.29296875 C-10.48088943 6.28872391 -11.23131012 6.28447906 -12.00447083 6.28010559 C-14.39918026 6.2633245 -16.79304534 6.2256749 -19.1875 6.1875 C-20.8118368 6.17245235 -22.4361868 6.15876409 -24.06054688 6.14648438 C-28.04068948 6.11342305 -32.02020163 6.06164594 -36 6 C-36 4.35 -36 2.7 -36 1 C-24.12 0.67 -12.24 0.34 0 0 Z " fill="#1F70C1" transform="translate(102,62)"/>
<path d="M0 0 C8.58 0 17.16 0 26 0 C26 1.98 26 3.96 26 6 C17.09 6 8.18 6 -1 6 C-0.67 4.02 -0.34 2.04 0 0 Z " fill="#1F70C1" transform="translate(151,38)"/>
<path d="M0 0 C10.23 0 20.46 0 31 0 C31 1.65 31 3.3 31 5 C20.77 5 10.54 5 0 5 C0 3.35 0 1.7 0 0 Z " fill="#1F70C1" transform="translate(23,87)"/>
<path d="M0 0 C10.23 0 20.46 0 31 0 C31 1.65 31 3.3 31 5 C20.77 5 10.54 5 0 5 C0 3.35 0 1.7 0 0 Z " fill="#1F70C1" transform="translate(23,47)"/>
<path d="M0 0 C8.25 0 16.5 0 25 0 C25.33 1.98 25.66 3.96 26 6 C17.42 6 8.84 6 0 6 C0 4.02 0 2.04 0 0 Z " fill="#1F70C1" transform="translate(108,38)"/>
<path d="M0 0 C9.57 0 19.14 0 29 0 C29 1.65 29 3.3 29 5 C19.1 5 9.2 5 -1 5 C-0.67 3.35 -0.34 1.7 0 0 Z " fill="#1F70C1" transform="translate(148,47)"/>
<path d="M0 0 C9.24 0 18.48 0 28 0 C28.33 1.65 28.66 3.3 29 5 C19.43 5 9.86 5 0 5 C0 3.35 0 1.7 0 0 Z " fill="#1F70C1" transform="translate(108,47)"/>
<path d="M0 0 C7.59 0 15.18 0 23 0 C23 1.98 23 3.96 23 6 C15.41 6 7.82 6 0 6 C0 4.02 0 2.04 0 0 Z " fill="#1F70C1" transform="translate(154,95)"/>
<path d="M0 0 C7.26 0 14.52 0 22 0 C22 1.98 22 3.96 22 6 C14.74 6 7.48 6 0 6 C0 4.02 0 2.04 0 0 Z " fill="#1F70C1" transform="translate(108,95)"/>
<path d="M0 0 C7.59 0 15.18 0 23 0 C23.33 1.65 23.66 3.3 24 5 C16.08 5 8.16 5 0 5 C0 3.35 0 1.7 0 0 Z " fill="#1F70C1" transform="translate(116,55)"/>
<path d="M0 0 C7.26 0 14.52 0 22 0 C22 1.65 22 3.3 22 5 C14.08 5 6.16 5 -2 5 C-1.34 3.35 -0.68 1.7 0 0 Z " fill="#1F70C1" transform="translate(146,55)"/>
<path d="M0 0 C7.59 0 15.18 0 23 0 C23 1.65 23 3.3 23 5 C15.41 5 7.82 5 0 5 C0 3.35 0 1.7 0 0 Z " fill="#1F70C1" transform="translate(154,87)"/>
<path d="M0 0 C7.26 0 14.52 0 22 0 C22 1.65 22 3.3 22 5 C14.74 5 7.48 5 0 5 C0 3.35 0 1.7 0 0 Z " fill="#1F70C1" transform="translate(108,87)"/>
<path d="M0 0 C7.26 0 14.52 0 22 0 C21.67 1.65 21.34 3.3 21 5 C14.73 5 8.46 5 2 5 C1.34 3.35 0.68 1.7 0 0 Z " fill="#1F70C1" transform="translate(131,71)"/>
<path d="M0 0 C5.28 0 10.56 0 16 0 C15.67 1.65 15.34 3.3 15 5 C10.71 5 6.42 5 2 5 C1.34 3.35 0.68 1.7 0 0 Z " fill="#1F70C1" transform="translate(134,79)"/>
<path d="M0 0 C4.62 0 9.24 0 14 0 C14.33 1.65 14.66 3.3 15 5 C10.05 5 5.1 5 0 5 C0 3.35 0 1.7 0 0 Z " fill="#1F70C1" transform="translate(91,79)"/>
<path d="M0 0 C4.95 0 9.9 0 15 0 C14.67 1.65 14.34 3.3 14 5 C9.38 5 4.76 5 0 5 C0 3.35 0 1.7 0 0 Z " fill="#1F70C1" transform="translate(91,55)"/>
<path d="M0 0 C4.62 0 9.24 0 14 0 C14 1.65 14 3.3 14 5 C9.38 5 4.76 5 0 5 C0 3.35 0 1.7 0 0 Z " fill="#1F70C1" transform="translate(154,79)"/>
<path d="M0 0 C4.62 0 9.24 0 14 0 C14 1.65 14 3.3 14 5 C9.38 5 4.76 5 0 5 C0 3.35 0 1.7 0 0 Z " fill="#1F70C1" transform="translate(116,79)"/>
<path d="M0 0 C4.62 0 9.24 0 14 0 C14 1.65 14 3.3 14 5 C9.38 5 4.76 5 0 5 C0 3.35 0 1.7 0 0 Z " fill="#1F70C1" transform="translate(66,79)"/>
<path d="M0 0 C4.62 0 9.24 0 14 0 C14 1.65 14 3.3 14 5 C9.38 5 4.76 5 0 5 C0 3.35 0 1.7 0 0 Z " fill="#1F70C1" transform="translate(32,79)"/>
<path d="M0 0 C4.62 0 9.24 0 14 0 C14 1.65 14 3.3 14 5 C9.38 5 4.76 5 0 5 C0 3.35 0 1.7 0 0 Z " fill="#1F70C1" transform="translate(154,71)"/>
<path d="M0 0 C4.62 0 9.24 0 14 0 C14 1.65 14 3.3 14 5 C9.38 5 4.76 5 0 5 C0 3.35 0 1.7 0 0 Z " fill="#1F70C1" transform="translate(116,71)"/>
<path d="M0 0 C4.62 0 9.24 0 14 0 C14 1.65 14 3.3 14 5 C9.38 5 4.76 5 0 5 C0 3.35 0 1.7 0 0 Z " fill="#1F70C1" transform="translate(32,71)"/>
<path d="M0 0 C4.62 0 9.24 0 14 0 C14 1.65 14 3.3 14 5 C9.38 5 4.76 5 0 5 C0 3.35 0 1.7 0 0 Z " fill="#1F70C1" transform="translate(32,63)"/>
<path d="M0 0 C4.62 0 9.24 0 14 0 C14 1.65 14 3.3 14 5 C9.38 5 4.76 5 0 5 C0 3.35 0 1.7 0 0 Z " fill="#1F70C1" transform="translate(66,55)"/>
<path d="M0 0 C4.62 0 9.24 0 14 0 C14 1.65 14 3.3 14 5 C9.38 5 4.76 5 0 5 C0 3.35 0 1.7 0 0 Z " fill="#1F70C1" transform="translate(32,55)"/>
<path d="M0 0 C3.3 0 6.6 0 10 0 C9.67 1.65 9.34 3.3 9 5 C6.36 5 3.72 5 1 5 C0.67 3.35 0.34 1.7 0 0 Z " fill="#1F70C1" transform="translate(137,87)"/>
<path d="M0 0 C1.65 0 3.3 0 5 0 C4.34 1.65 3.68 3.3 3 5 C2.34 5 1.68 5 1 5 C0.67 3.35 0.34 1.7 0 0 Z " fill="#1F70C1" transform="translate(140,95)"/>
</svg>
