<?xml version="1.0" encoding="UTF-8"?>
<svg version="1.1" xmlns="http://www.w3.org/2000/svg" width="512" height="512">
<path d="M0 0 C1 2 1 2 0.38256836 3.85327148 C0.03846924 4.60165283 -0.30562988 5.35003418 -0.66015625 6.12109375 C-1.03889893 6.96422119 -1.4176416 7.80734863 -1.80786133 8.67602539 C-2.22189209 9.58731201 -2.63592285 10.49859863 -3.0625 11.4375 C-26.4401782 64.59253554 -24.44474338 124.24930115 -3.71484375 178.03125 C6.87064113 204.61958504 21.05504582 228.71501402 39 251 C39.69996094 251.89203125 40.39992188 252.7840625 41.12109375 253.703125 C54.59756411 270.61671349 69.98831228 285.60028463 87.21289062 298.64550781 C88.39769141 299.54349617 89.57874517 300.44645136 90.75585938 301.35449219 C148.57152203 345.91939531 223.27153752 366.62689805 295.74072266 357.40820312 C346.82311488 350.23706711 397.59319219 328.62909237 429.77734375 286.68359375 C430.18082031 286.12800781 430.58429688 285.57242187 431 285 C431.66 285.33 432.32 285.66 433 286 C424.80474158 304.89118481 414.26601244 322.24252011 401 338 C400.52208008 338.5779834 400.04416016 339.1559668 399.55175781 339.75146484 C389.39662495 352.03201279 378.62942775 363.2171013 366 373 C365.42830078 373.45342773 364.85660156 373.90685547 364.26757812 374.37402344 C334.07929606 398.28505955 297.90148229 413.54634723 260 420 C259.06623535 420.16226074 258.1324707 420.32452148 257.17041016 420.49169922 C226.52805191 425.5440125 193.62195847 424.63506025 163 420 C162.08283203 419.87141602 161.16566406 419.74283203 160.22070312 419.61035156 C129.5889991 415.21361684 99.37499658 401.88102804 73 386 C72.20867676 385.5241748 71.41735352 385.04834961 70.60205078 384.55810547 C55.30079936 375.28068333 41.50669405 364.71178454 28 353 C27.18273437 352.29617188 26.36546875 351.59234375 25.5234375 350.8671875 C13.76982356 340.5287244 2.53778246 329.42551936 -7 317 C-8.00167131 315.73754054 -9.00435222 314.47588173 -10.0078125 313.21484375 C-40.80697169 274.16475677 -62.38991217 225.81289702 -67 176 C-67.10957031 174.88625 -67.21914062 173.7725 -67.33203125 172.625 C-70.57705118 134.55009952 -64.44040656 95.7116488 -46 62 C-45.36670907 60.79842912 -44.73389027 59.59660927 -44.1015625 58.39453125 C-39.66763542 50.14041277 -34.33988946 42.97976947 -28.42333984 35.75 C-26.07622606 32.86421756 -23.79131201 29.93012931 -21.5 27 C-20.59141902 25.84353532 -19.68256409 24.68728581 -18.7734375 23.53125 C-16.85955224 21.0956437 -14.94851112 18.65783585 -13.0390625 16.21875 C-12.55115234 15.59613281 -12.06324219 14.97351563 -11.56054688 14.33203125 C-10.63662307 13.15292849 -9.71339007 11.97328392 -8.79101562 10.79296875 C-5.92570709 7.13828298 -2.98778518 3.55535728 0 0 Z " fill="#0767AC" transform="translate(69,78)"/>
<path d="M0 0 C0.495 0.99 0.495 0.99 1 2 C-0.12395946 4.38803311 -1.30744336 6.68199567 -2.5625 9 C-18.89509263 40.43172492 -21.60306704 78.86547985 -13 113 C-12.82339844 113.73492676 -12.64679688 114.46985352 -12.46484375 115.22705078 C-4.57356898 147.42783588 13.50023099 176.03876563 36 200 C36.73814941 200.78914795 36.73814941 200.78914795 37.49121094 201.59423828 C69.60614523 235.64629506 112.97019203 256.74569402 159 264 C159.65145996 264.103125 160.30291992 264.20625 160.97412109 264.3125 C180.42692735 266.91799426 202.93183597 266.6756701 222 262 C222.83063965 261.80132324 223.6612793 261.60264648 224.51708984 261.39794922 C256.21129445 253.60429235 285.78704306 237.33089168 306.125 211.34765625 C307.66359793 209.42120342 309.21325925 207.69182015 311 206 C311.23424765 210.41770145 310.76654121 213.20824087 308.7265625 217.125 C307.99155518 218.54570801 307.99155518 218.54570801 307.24169922 219.99511719 C306.44143311 221.48253418 306.44143311 221.48253418 305.625 223 C304.80733154 224.53769043 304.80733154 224.53769043 303.97314453 226.10644531 C297.63755372 237.81058657 290.35585531 247.92197924 281.23046875 257.61328125 C279.4074378 259.56402015 277.72648205 261.54144655 276.0625 263.625 C271.98860373 268.41983858 266.95335892 272.16214282 262 276 C261.12085938 276.68320312 260.24171875 277.36640625 259.3359375 278.0703125 C231.54761195 298.97303526 196.01767686 310.99912198 161.25 311.203125 C160.44220596 311.21013931 159.63441193 311.21715363 158.80213928 311.22438049 C156.20136893 311.24180878 153.60082665 311.24823494 151 311.25 C150.11005341 311.25067474 149.22010681 311.25134949 148.30319214 311.25204468 C127.67648085 311.22724153 107.54774796 310.12504836 88 303 C87.23445801 302.72559082 86.46891602 302.45118164 85.68017578 302.16845703 C59.00048565 292.45552496 35.33861717 278.3069273 14.38671875 259.1640625 C12.18731879 257.16984388 9.94740113 255.23744393 7.6875 253.3125 C4.3868941 250.44269608 1.73885929 247.40506831 -1 244 C-2.1446875 242.88625 -2.1446875 242.88625 -3.3125 241.75 C-36.80827443 207.47525407 -51.73705426 159.46381763 -51.2109375 112.546875 C-50.67053248 85.66005719 -42.03277786 58.6294432 -26.25927734 36.75732422 C-24.73112447 34.62478362 -23.23482676 32.4712437 -21.73828125 30.31640625 C-16.26812618 22.44884678 -10.74892689 14.61580628 -5.1875 6.8125 C-4.77322754 6.23064941 -4.35895508 5.64879883 -3.93212891 5.04931641 C-1.1235099 1.1235099 -1.1235099 1.1235099 0 0 Z " fill="#0767AC" transform="translate(201,30)"/>
<path d="M0 0 C0.33 0.66 0.66 1.32 1 2 C0.15690089 4.15524631 -0.77665532 6.27535648 -1.75 8.375 C-11.88449685 31.0204996 -11.08504824 56.42088624 -2.6784668 79.5234375 C2.59130978 93.09448656 9.63378821 105.8402583 19 117 C19.70640625 117.845625 20.4128125 118.69125 21.140625 119.5625 C40.1533559 141.44765788 64.04107721 155.02337095 92 162 C93.87945312 162.48146484 93.87945312 162.48146484 95.796875 162.97265625 C121.70099429 168.56440891 149.16147887 166.95508848 172 153 C178.30528012 148.75461219 183.40359675 143.76611239 188.30859375 137.98046875 C189.80359959 136.22996537 191.34819262 134.60129339 193 133 C192.3368352 137.18951733 190.09956939 140.55984278 187.9375 144.125 C187.5355542 144.79080078 187.1336084 145.45660156 186.71948242 146.14257812 C183.23717917 151.8061945 179.31328497 156.941439 175 162 C174.55785156 162.58652344 174.11570312 163.17304688 173.66015625 163.77734375 C159.44663103 182.13828059 135.31587215 191.4598578 113.05078125 194.4609375 C85.31342151 197.70651387 59.4043691 192.21277398 35 179 C34.08476562 178.50628906 33.16953125 178.01257813 32.2265625 177.50390625 C13.81916222 166.98964686 -1.56652283 151.74592709 -13 134 C-13.94939453 132.55947266 -13.94939453 132.55947266 -14.91796875 131.08984375 C-22.70901183 118.58633753 -27.66290893 104.50866135 -30 90 C-30.13019531 89.2059375 -30.26039063 88.411875 -30.39453125 87.59375 C-30.69379999 85.39113206 -30.8756564 83.21934487 -31 81 C-31.07927734 79.62908203 -31.07927734 79.62908203 -31.16015625 78.23046875 C-31.96852902 50.28888832 -21.12086657 27.09159436 -4.24365234 5.58837891 C-2.80120218 3.74609764 -1.39393963 1.87920188 0 0 Z " fill="#0767AC" transform="translate(307,7)"/>
</svg>
