<?xml version="1.0" encoding="UTF-8"?>
<svg version="1.1" xmlns="http://www.w3.org/2000/svg" width="512" height="512">
<path d="M0 0 C0.71592316 -0.00067474 1.43184631 -0.00134949 2.16946411 -0.00204468 C12.93863306 0.01408338 23.09135988 0.522224 33.5625 3.25 C34.23667969 3.41628906 34.91085937 3.58257812 35.60546875 3.75390625 C59.2245316 9.64775742 79.51419461 21.14958675 97.71875 37.14453125 C100.70028877 40.18240687 100.70028877 40.18240687 104.5625 41.25 C106.09939759 38.98541613 107.50279721 36.73712695 108.875 34.375 C109.27581787 33.69622803 109.67663574 33.01745605 110.08959961 32.31811523 C113.15414042 27.07833918 115.98773731 21.74886504 118.5625 16.25 C122.21918848 19.90668848 123.08404974 25.40278371 124.625 30.25 C125.01913086 31.48733887 125.41326172 32.72467773 125.81933594 33.99951172 C133.27576957 57.67421848 139.5992936 81.73260344 143.5625 106.25 C143.75730957 107.42079102 143.75730957 107.42079102 143.95605469 108.61523438 C150.70785465 150.86599383 143.57479233 195.07705486 118.28515625 230.01464844 C95.22438913 261.37250165 61.4905182 282.46569261 22.98046875 288.76171875 C21.85253906 288.92285156 20.72460938 289.08398438 19.5625 289.25 C18.71300781 289.38019531 17.86351562 289.51039063 16.98828125 289.64453125 C-19.8256449 294.33221285 -58.60636155 283.35673887 -87.86010742 260.78051758 C-114.72938961 239.46125039 -132.64450794 212.48018249 -141.4375 179.25 C-141.94796875 177.38021484 -141.94796875 177.38021484 -142.46875 175.47265625 C-146.88902472 155.64281273 -146.64491425 130.86179399 -141.4375 111.25 C-141.27121094 110.5787207 -141.10492188 109.90744141 -140.93359375 109.21582031 C-131.24504157 70.37190279 -105.78328408 38.64169049 -71.75 18.0625 C-49.33029633 5.769449 -25.45577051 0.02152662 0 0 Z " fill="#6FAC50" transform="translate(254.4375,111.75)"/>
<path d="M0 0 C0.66 0 1.32 0 2 0 C10.49367578 25.21819914 17.34516789 50.60889345 21 77 C21.1546875 78.05755493 21.1546875 78.05755493 21.3125 79.13647461 C25.58000287 111.75619968 22.22410293 147.6962391 2.8046875 175.09765625 C-13.71166335 196.01644905 -37.20934756 205.241358 -63.12400818 208.55393982 C-74.96327374 209.9447886 -86.62525323 210.25096673 -98.53515625 210.16015625 C-100.43460275 210.15386043 -102.33405304 210.14862889 -104.23350525 210.14439392 C-109.17294663 210.13126057 -114.11225786 210.10690286 -119.05163574 210.07904053 C-126.98479223 210.03545882 -134.917985 210.00604583 -142.8512249 209.9829998 C-145.59748588 209.97288703 -148.34363882 209.95584055 -151.08985901 209.93800354 C-159.13412904 209.89938095 -167.00708658 209.94947928 -175 211 C-172.71714685 208.71714685 -171.19648021 208.23577774 -168.15234375 207.23046875 C-167.16355225 206.90175781 -166.17476074 206.57304687 -165.15600586 206.234375 C-164.09389893 205.88890625 -163.03179199 205.5434375 -161.9375 205.1875 C-160.30083374 204.64802734 -160.30083374 204.64802734 -158.63110352 204.09765625 C-152.59541432 202.12261428 -146.54451034 200.24063814 -140.4375 198.5 C-116.4474856 191.59836118 -94.06354696 183.0735005 -74 168 C-73.07445312 167.31808594 -72.14890625 166.63617188 -71.1953125 165.93359375 C-44.76978621 145.41164248 -21.66874066 116.07144409 -14 83 C-14.69222656 84.38058594 -14.69222656 84.38058594 -15.3984375 85.7890625 C-32.04496365 118.35740941 -58.98855645 144.007912 -91.21289062 161.04931641 C-92.75298655 161.86859694 -94.27667935 162.7185779 -95.796875 163.57421875 C-120.63928646 176.98765097 -149.70406306 182.7204227 -177.125 188.5625 C-178.34606445 188.82635498 -179.56712891 189.09020996 -180.82519531 189.36206055 C-181.95795898 189.59449463 -183.09072266 189.82692871 -184.2578125 190.06640625 C-185.74498779 190.3749353 -185.74498779 190.3749353 -187.26220703 190.68969727 C-193.15833518 191.35796719 -196.48886022 189.33382955 -200.94921875 185.7890625 C-210.85822712 177.14463234 -216.04021584 165.95294846 -218 153 C-219.35036648 131.77392691 -213.80719035 111.91811104 -199.5625 95.6875 C-198.06025606 94.10711921 -196.54046028 92.54315339 -195 91 C-194.07960937 90.06220703 -194.07960937 90.06220703 -193.140625 89.10546875 C-172.94385432 69.98758539 -146.02355913 67.61532659 -119.72900391 65.77050781 C-79.72512748 62.94080517 -41.05920158 51.66131803 -13.58349609 20.38769531 C-8.30833368 14.05750041 -3.64051505 7.41515434 0 0 Z " fill="#FDFDFD" transform="translate(371,145)"/>
<path d="M0 0 C3.12291165 1.68012647 5.39164837 3.78329674 7 7 C7.52137294 11.82911 7.73402673 15.74166846 5.25 20 C1.15496736 23.64002901 -1.69594194 24.36625389 -7.109375 24.17578125 C-9.66306779 23.93835113 -10.99313698 23.64849462 -13 22 C-16.3672492 17.22973029 -17.86957549 13.97833146 -17 8 C-12.834109 0.38647507 -8.33718013 -1.30753912 0 0 Z " fill="#FCFCFB" transform="translate(172,344)"/>
</svg>
