<?xml version="1.0" encoding="UTF-8"?>
<svg version="1.1" xmlns="http://www.w3.org/2000/svg" width="512" height="512">
<path d="M0 0 C0.79744629 0.38913574 1.59489258 0.77827148 2.41650391 1.17919922 C23.05614139 11.36342301 41.82677914 24.36849407 58.76171875 39.9453125 C60.87039527 41.88102603 63.01786328 43.75819976 65.1875 45.625 C71.68823476 51.31964365 77.28933364 57.40199254 82.69921875 64.1484375 C84.13321901 65.92572136 85.5905529 67.68473113 87.08203125 69.4140625 C115.67436799 102.83367688 132.49344765 144.27238042 141 187 C141.18079102 187.88155762 141.36158203 188.76311523 141.54785156 189.67138672 C146.96428683 217.37273806 146.64814877 250.37329569 141 278 C140.70198486 279.51303711 140.70198486 279.51303711 140.39794922 281.05664062 C131.15651367 326.99384385 111.18703628 368.93577871 80 404 C79.54383301 404.51788086 79.08766602 405.03576172 78.61767578 405.56933594 C66.00392627 419.84755292 52.71242928 432.91137373 32.76171875 434.2109375 C16.83420317 434.66352264 5.68889222 429.57740058 -7.2199707 420.79931641 C-28.51321074 406.33021894 -50.83774231 396.54246214 -76 391 C-77.1125415 390.7522583 -77.1125415 390.7522583 -78.24755859 390.49951172 C-100.74932978 385.74131956 -126.57433701 386.03064916 -149 391 C-149.76844238 391.16628906 -150.53688477 391.33257812 -151.32861328 391.50390625 C-175.5423213 396.90808163 -198.20301427 406.79225928 -218.41503906 421.15527344 C-231.26586788 430.22990548 -244.65354286 435.36736007 -260.59765625 433.6015625 C-275.1687379 430.85839098 -284.76002329 424.16534131 -295 414 C-295.65742188 413.37996094 -296.31484375 412.75992187 -296.9921875 412.12109375 C-301.65178685 407.66548607 -305.68727478 402.71539906 -309.6796875 397.66210938 C-310.58923844 396.51709777 -311.50638241 395.37809045 -312.4296875 394.24414062 C-345.94261607 353.04754838 -367.92924941 298.48990941 -368.203125 244.98828125 C-368.21018463 244.06563477 -368.21724426 243.14298828 -368.22451782 242.19238281 C-368.45148416 203.82983053 -368.45148416 203.82983053 -365 187 C-364.79600586 185.97535645 -364.59201172 184.95071289 -364.38183594 183.89501953 C-354.95255318 137.55153595 -334.64589198 94.23077286 -302.28125 59.46875 C-300.38769392 57.41955918 -298.5940214 55.3325972 -296.8125 53.1875 C-260.70956691 11.95104961 -205.71525717 -13.89772089 -152.4375 -22.8125 C-150.58354614 -23.1230835 -150.58354614 -23.1230835 -148.69213867 -23.43994141 C-98.07221134 -31.51436911 -45.85683935 -22.48470408 0 0 Z M-206 141 C-206.65355469 141.6703125 -207.30710938 142.340625 -207.98046875 143.03125 C-225.70881902 161.82757318 -237.21188171 187.33501369 -240 213 C-240.12117188 213.98742187 -240.24234375 214.97484375 -240.3671875 215.9921875 C-243.83084978 251.22016724 -235.41285367 286.28747449 -213 314 C-196.700762 333.48721129 -176.18436729 347.93990642 -151.8125 355.375 C-151.02979736 355.61379883 -150.24709473 355.85259766 -149.44067383 356.09863281 C-137.4166099 359.53870244 -125.38805319 360.40886906 -112.9375 360.375 C-111.85508026 360.37468277 -111.85508026 360.37468277 -110.75079346 360.37435913 C-98.78443082 360.3394819 -87.53978408 359.28260999 -76 356 C-75.35047363 355.82871582 -74.70094727 355.65743164 -74.03173828 355.48095703 C-57.33663718 351.02121871 -42.06170379 342.17862723 -29 331 C-28.4942041 330.57638184 -27.9884082 330.15276367 -27.46728516 329.71630859 C-4.17166679 310.09545042 11.49905996 280.75114319 14.83666992 250.39892578 C17.48089943 211.56155784 10.55451924 175.58093279 -15.28515625 145.32421875 C-17.48223465 142.84072876 -19.72626027 140.41328332 -22 138 C-22.91652344 136.98679687 -22.91652344 136.98679687 -23.8515625 135.953125 C-46.12753245 112.25528462 -80.21035949 100.67966499 -112.125 99.6875 C-148.63182107 100.54067294 -180.83635881 114.54591567 -206 141 Z " fill="#81B5A1" transform="translate(368,52)"/>
</svg>
